<mxfile host="app.diagrams.net" modified="2020-08-14T12:49:07.988Z" agent="5.0 (X11)" etag="FSpqqlGTlYTRXbjzhhO1" version="13.6.2" type="github">
  <diagram id="C5RBs43oDa-KdzZeNtuy" name="Page-1">
    <mxGraphModel dx="1350" dy="738" grid="1" gridSize="10" guides="1" tooltips="1" connect="1" arrows="1" fold="1" page="1" pageScale="1" pageWidth="827" pageHeight="1169" math="0" shadow="0">
      <root>
        <mxCell id="WIyWlLk6GJQsqaUBKTNV-0" />
        <mxCell id="WIyWlLk6GJQsqaUBKTNV-1" parent="WIyWlLk6GJQsqaUBKTNV-0" />
        <mxCell id="qcAdu_9-AjF_YOfYh3q7-18" value="" style="rounded=1;whiteSpace=wrap;html=1;fillColor=#e1d5e7;strokeColor=#9673a6;opacity=80;fontFamily=Garamond;" parent="WIyWlLk6GJQsqaUBKTNV-1" vertex="1">
          <mxGeometry x="110" y="60" width="330" height="540" as="geometry" />
        </mxCell>
        <mxCell id="qcAdu_9-AjF_YOfYh3q7-25" value="" style="rounded=1;whiteSpace=wrap;html=1;fillColor=#6d8764;strokeColor=#3A5431;opacity=10;strokeWidth=3;fontColor=#ffffff;fontFamily=Garamond;" parent="WIyWlLk6GJQsqaUBKTNV-1" vertex="1">
          <mxGeometry x="110" y="90" width="520" height="510" as="geometry" />
        </mxCell>
        <mxCell id="qcAdu_9-AjF_YOfYh3q7-22" value="" style="rounded=1;whiteSpace=wrap;html=1;fillColor=#f8cecc;strokeColor=#b85450;opacity=40;strokeWidth=2;fontFamily=Garamond;" parent="WIyWlLk6GJQsqaUBKTNV-1" vertex="1">
          <mxGeometry x="110" y="390" width="430" height="210" as="geometry" />
        </mxCell>
        <mxCell id="qcAdu_9-AjF_YOfYh3q7-21" value="" style="rounded=1;whiteSpace=wrap;html=1;fillColor=#f8cecc;strokeColor=#b85450;opacity=40;strokeWidth=2;perimeterSpacing=4;fontFamily=Garamond;" parent="WIyWlLk6GJQsqaUBKTNV-1" vertex="1">
          <mxGeometry x="110" y="90" width="430" height="280" as="geometry" />
        </mxCell>
        <mxCell id="qcAdu_9-AjF_YOfYh3q7-48" value="" style="rounded=1;whiteSpace=wrap;html=1;fillColor=#e1d5e7;strokeColor=#9673a6;opacity=80;fontFamily=Garamond;strokeWidth=2;" parent="WIyWlLk6GJQsqaUBKTNV-1" vertex="1">
          <mxGeometry x="110" y="620" width="520" height="170" as="geometry" />
        </mxCell>
        <mxCell id="qcAdu_9-AjF_YOfYh3q7-4" style="edgeStyle=orthogonalEdgeStyle;rounded=0;orthogonalLoop=1;jettySize=auto;html=1;exitX=0.5;exitY=1;exitDx=0;exitDy=0;entryX=0.5;entryY=0;entryDx=0;entryDy=0;fontFamily=Garamond;" parent="WIyWlLk6GJQsqaUBKTNV-1" edge="1">
          <mxGeometry relative="1" as="geometry">
            <mxPoint x="284" y="155" as="sourcePoint" />
            <mxPoint x="284" y="175" as="targetPoint" />
          </mxGeometry>
        </mxCell>
        <mxCell id="qcAdu_9-AjF_YOfYh3q7-11" style="edgeStyle=orthogonalEdgeStyle;rounded=0;orthogonalLoop=1;jettySize=auto;html=1;exitX=0.5;exitY=1;exitDx=0;exitDy=0;entryX=0.5;entryY=0;entryDx=0;entryDy=0;fontFamily=Garamond;" parent="WIyWlLk6GJQsqaUBKTNV-1" target="qcAdu_9-AjF_YOfYh3q7-7" edge="1">
          <mxGeometry relative="1" as="geometry">
            <mxPoint x="284" y="220" as="sourcePoint" />
          </mxGeometry>
        </mxCell>
        <mxCell id="qcAdu_9-AjF_YOfYh3q7-6" value="" style="endArrow=classic;html=1;entryX=0.5;entryY=0;entryDx=0;entryDy=0;exitX=0;exitY=0.5;exitDx=0;exitDy=0;fontFamily=Garamond;" parent="WIyWlLk6GJQsqaUBKTNV-1" source="qcAdu_9-AjF_YOfYh3q7-7" target="qcAdu_9-AjF_YOfYh3q7-30" edge="1">
          <mxGeometry width="50" height="50" relative="1" as="geometry">
            <mxPoint x="244" y="265" as="sourcePoint" />
            <mxPoint x="204" y="305" as="targetPoint" />
            <Array as="points">
              <mxPoint x="204" y="260" />
            </Array>
          </mxGeometry>
        </mxCell>
        <mxCell id="qcAdu_9-AjF_YOfYh3q7-7" value="use_gp" style="rhombus;whiteSpace=wrap;html=1;fillColor=#d5e8d4;strokeColor=#82b366;fontFamily=Garamond;" parent="WIyWlLk6GJQsqaUBKTNV-1" vertex="1">
          <mxGeometry x="244" y="235" width="80" height="50" as="geometry" />
        </mxCell>
        <mxCell id="qcAdu_9-AjF_YOfYh3q7-9" value="" style="endArrow=classic;html=1;exitX=1;exitY=0.5;exitDx=0;exitDy=0;entryX=0.5;entryY=0;entryDx=0;entryDy=0;fontFamily=Garamond;" parent="WIyWlLk6GJQsqaUBKTNV-1" source="qcAdu_9-AjF_YOfYh3q7-7" target="qcAdu_9-AjF_YOfYh3q7-31" edge="1">
          <mxGeometry width="50" height="50" relative="1" as="geometry">
            <mxPoint x="514" y="455" as="sourcePoint" />
            <mxPoint x="364" y="305" as="targetPoint" />
            <Array as="points">
              <mxPoint x="364" y="260" />
            </Array>
          </mxGeometry>
        </mxCell>
        <mxCell id="qcAdu_9-AjF_YOfYh3q7-12" value="False" style="text;html=1;strokeColor=none;fillColor=none;align=center;verticalAlign=middle;whiteSpace=wrap;rounded=0;fontFamily=Garamond;" parent="WIyWlLk6GJQsqaUBKTNV-1" vertex="1">
          <mxGeometry x="204" y="235" width="40" height="20" as="geometry" />
        </mxCell>
        <mxCell id="qcAdu_9-AjF_YOfYh3q7-13" value="&lt;div&gt;True&lt;/div&gt;" style="text;html=1;strokeColor=none;fillColor=none;align=center;verticalAlign=middle;whiteSpace=wrap;rounded=0;fontFamily=Garamond;" parent="WIyWlLk6GJQsqaUBKTNV-1" vertex="1">
          <mxGeometry x="329" y="235" width="30" height="20" as="geometry" />
        </mxCell>
        <mxCell id="qcAdu_9-AjF_YOfYh3q7-14" value="" style="endArrow=classic;html=1;exitX=0.5;exitY=1;exitDx=0;exitDy=0;entryX=0.5;entryY=0;entryDx=0;entryDy=0;fontFamily=Garamond;" parent="WIyWlLk6GJQsqaUBKTNV-1" edge="1">
          <mxGeometry width="50" height="50" relative="1" as="geometry">
            <mxPoint x="284" y="445" as="sourcePoint" />
            <mxPoint x="284" y="475" as="targetPoint" />
          </mxGeometry>
        </mxCell>
        <mxCell id="qcAdu_9-AjF_YOfYh3q7-15" value="" style="endArrow=classic;html=1;exitX=0.5;exitY=1;exitDx=0;exitDy=0;entryX=0.5;entryY=0;entryDx=0;entryDy=0;fontFamily=Garamond;" parent="WIyWlLk6GJQsqaUBKTNV-1" edge="1">
          <mxGeometry width="50" height="50" relative="1" as="geometry">
            <mxPoint x="284" y="515" as="sourcePoint" />
            <mxPoint x="284" y="545" as="targetPoint" />
          </mxGeometry>
        </mxCell>
        <mxCell id="qcAdu_9-AjF_YOfYh3q7-16" value="" style="endArrow=classic;html=1;exitX=0.5;exitY=1;exitDx=0;exitDy=0;entryX=0.5;entryY=0;entryDx=0;entryDy=0;fontFamily=Garamond;" parent="WIyWlLk6GJQsqaUBKTNV-1" source="qcAdu_9-AjF_YOfYh3q7-30" edge="1">
          <mxGeometry width="50" height="50" relative="1" as="geometry">
            <mxPoint x="204" y="345" as="sourcePoint" />
            <mxPoint x="284" y="405" as="targetPoint" />
            <Array as="points">
              <mxPoint x="204" y="375" />
              <mxPoint x="284" y="375" />
            </Array>
          </mxGeometry>
        </mxCell>
        <mxCell id="qcAdu_9-AjF_YOfYh3q7-17" value="" style="endArrow=classic;html=1;exitX=0.5;exitY=1;exitDx=0;exitDy=0;fontFamily=Garamond;" parent="WIyWlLk6GJQsqaUBKTNV-1" source="qcAdu_9-AjF_YOfYh3q7-31" edge="1">
          <mxGeometry width="50" height="50" relative="1" as="geometry">
            <mxPoint x="364" y="345" as="sourcePoint" />
            <mxPoint x="284" y="405" as="targetPoint" />
            <Array as="points">
              <mxPoint x="364" y="375" />
              <mxPoint x="284" y="375" />
            </Array>
          </mxGeometry>
        </mxCell>
        <mxCell id="qcAdu_9-AjF_YOfYh3q7-19" value="&lt;div style=&quot;font-size: 17px&quot;&gt;&lt;font style=&quot;font-size: 17px&quot;&gt;Training Part&lt;/font&gt;&lt;/div&gt;" style="text;html=1;strokeColor=none;fillColor=none;align=center;verticalAlign=middle;whiteSpace=wrap;rounded=0;fontFamily=Garamond;" parent="WIyWlLk6GJQsqaUBKTNV-1" vertex="1">
          <mxGeometry x="214" y="45" width="140" height="60" as="geometry" />
        </mxCell>
        <mxCell id="qcAdu_9-AjF_YOfYh3q7-28" value="_sample_nuisance()" style="ellipse;whiteSpace=wrap;html=1;strokeWidth=1;opacity=90;fillColor=#d5e8d4;strokeColor=#82b366;fontFamily=Garamond;" parent="WIyWlLk6GJQsqaUBKTNV-1" vertex="1">
          <mxGeometry x="214" y="115" width="140" height="40" as="geometry" />
        </mxCell>
        <mxCell id="qcAdu_9-AjF_YOfYh3q7-29" value="_define_optim_problems()" style="ellipse;whiteSpace=wrap;html=1;strokeWidth=1;opacity=90;fillColor=#d5e8d4;strokeColor=#82b366;fontFamily=Garamond;" parent="WIyWlLk6GJQsqaUBKTNV-1" vertex="1">
          <mxGeometry x="204" y="175" width="170" height="40" as="geometry" />
        </mxCell>
        <mxCell id="qcAdu_9-AjF_YOfYh3q7-30" value="_solve_gradients()" style="ellipse;whiteSpace=wrap;html=1;strokeWidth=1;opacity=90;fillColor=#d5e8d4;strokeColor=#82b366;fontFamily=Garamond;" parent="WIyWlLk6GJQsqaUBKTNV-1" vertex="1">
          <mxGeometry x="144" y="305" width="120" height="30" as="geometry" />
        </mxCell>
        <mxCell id="qcAdu_9-AjF_YOfYh3q7-31" value="_solve_bo()" style="ellipse;whiteSpace=wrap;html=1;strokeWidth=1;opacity=90;fillColor=#d5e8d4;strokeColor=#82b366;fontFamily=Garamond;" parent="WIyWlLk6GJQsqaUBKTNV-1" vertex="1">
          <mxGeometry x="314" y="305" width="100" height="25" as="geometry" />
        </mxCell>
        <mxCell id="qcAdu_9-AjF_YOfYh3q7-32" value="_filter_solutions()" style="ellipse;whiteSpace=wrap;html=1;strokeWidth=1;opacity=90;fillColor=#d5e8d4;strokeColor=#82b366;fontFamily=Garamond;" parent="WIyWlLk6GJQsqaUBKTNV-1" vertex="1">
          <mxGeometry x="214" y="405" width="140" height="40" as="geometry" />
        </mxCell>
        <mxCell id="qcAdu_9-AjF_YOfYh3q7-33" value="_estimate_regions()" style="ellipse;whiteSpace=wrap;html=1;strokeWidth=1;opacity=90;fillColor=#d5e8d4;strokeColor=#82b366;fontFamily=Garamond;" parent="WIyWlLk6GJQsqaUBKTNV-1" vertex="1">
          <mxGeometry x="214" y="475" width="150" height="40" as="geometry" />
        </mxCell>
        <mxCell id="qcAdu_9-AjF_YOfYh3q7-34" value="_define_posterior()" style="ellipse;whiteSpace=wrap;html=1;strokeWidth=1;opacity=90;fillColor=#d5e8d4;strokeColor=#82b366;fontFamily=Garamond;" parent="WIyWlLk6GJQsqaUBKTNV-1" vertex="1">
          <mxGeometry x="214" y="545" width="140" height="40" as="geometry" />
        </mxCell>
        <mxCell id="qcAdu_9-AjF_YOfYh3q7-40" value="" style="shape=link;html=1;fontFamily=Garamond;" parent="WIyWlLk6GJQsqaUBKTNV-1" edge="1">
          <mxGeometry width="100" relative="1" as="geometry">
            <mxPoint x="110" y="610" as="sourcePoint" />
            <mxPoint x="620" y="610" as="targetPoint" />
            <Array as="points">
              <mxPoint x="280" y="610" />
            </Array>
          </mxGeometry>
        </mxCell>
        <mxCell id="qcAdu_9-AjF_YOfYh3q7-41" value="sample()" style="ellipse;whiteSpace=wrap;html=1;strokeWidth=1;opacity=90;fillColor=#dae8fc;strokeColor=#6c8ebf;fontFamily=Garamond;" parent="WIyWlLk6GJQsqaUBKTNV-1" vertex="1">
          <mxGeometry x="170" y="660" width="120" height="40" as="geometry" />
        </mxCell>
        <mxCell id="qcAdu_9-AjF_YOfYh3q7-42" value="eval_posterior()" style="ellipse;whiteSpace=wrap;html=1;strokeWidth=1;opacity=90;fillColor=#dae8fc;strokeColor=#6c8ebf;fontFamily=Garamond;" parent="WIyWlLk6GJQsqaUBKTNV-1" vertex="1">
          <mxGeometry x="404" y="720" width="120" height="40" as="geometry" />
        </mxCell>
        <mxCell id="qcAdu_9-AjF_YOfYh3q7-43" value="eval_unnorm_posterior()" style="ellipse;whiteSpace=wrap;html=1;strokeWidth=1;opacity=90;fillColor=#dae8fc;strokeColor=#6c8ebf;fontFamily=Garamond;" parent="WIyWlLk6GJQsqaUBKTNV-1" vertex="1">
          <mxGeometry x="374" y="660" width="180" height="40" as="geometry" />
        </mxCell>
        <mxCell id="qcAdu_9-AjF_YOfYh3q7-44" value="compute_expectation()" style="ellipse;whiteSpace=wrap;html=1;strokeWidth=1;opacity=90;fillColor=#dae8fc;strokeColor=#6c8ebf;fontFamily=Garamond;" parent="WIyWlLk6GJQsqaUBKTNV-1" vertex="1">
          <mxGeometry x="154" y="720" width="170" height="40" as="geometry" />
        </mxCell>
        <mxCell id="qcAdu_9-AjF_YOfYh3q7-45" value="&lt;font style=&quot;font-size: 17px&quot;&gt;fit_posterior()&lt;/font&gt;" style="ellipse;whiteSpace=wrap;html=1;strokeWidth=1;opacity=90;fillColor=#dae8fc;strokeColor=#6c8ebf;fontFamily=Garamond;rotation=90;" parent="WIyWlLk6GJQsqaUBKTNV-1" vertex="1">
          <mxGeometry x="490" y="317.5" width="200" height="45" as="geometry" />
        </mxCell>
        <mxCell id="qcAdu_9-AjF_YOfYh3q7-46" value="&lt;font style=&quot;font-size: 17px&quot;&gt;solve_problems()&lt;/font&gt;" style="ellipse;whiteSpace=wrap;html=1;strokeWidth=1;opacity=90;fillColor=#dae8fc;strokeColor=#6c8ebf;fontFamily=Garamond;rotation=90;" parent="WIyWlLk6GJQsqaUBKTNV-1" vertex="1">
          <mxGeometry x="390" y="200" width="190" height="40" as="geometry" />
        </mxCell>
        <mxCell id="qcAdu_9-AjF_YOfYh3q7-47" value="&lt;font style=&quot;font-size: 17px&quot;&gt;estimate_regions()&lt;/font&gt;" style="ellipse;whiteSpace=wrap;html=1;strokeWidth=1;opacity=90;fillColor=#dae8fc;strokeColor=#6c8ebf;fontFamily=Garamond;rotation=90;" parent="WIyWlLk6GJQsqaUBKTNV-1" vertex="1">
          <mxGeometry x="385" y="470" width="200" height="40" as="geometry" />
        </mxCell>
        <mxCell id="qcAdu_9-AjF_YOfYh3q7-52" value="&lt;font style=&quot;font-size: 17px&quot;&gt;Inference Part&lt;/font&gt;" style="text;html=1;strokeColor=none;fillColor=none;align=center;verticalAlign=middle;whiteSpace=wrap;rounded=0;fontFamily=Garamond;opacity=80;" parent="WIyWlLk6GJQsqaUBKTNV-1" vertex="1">
          <mxGeometry x="284" y="620" width="160" height="30" as="geometry" />
        </mxCell>
        <mxCell id="qcAdu_9-AjF_YOfYh3q7-53" value="" style="shape=link;html=1;fontFamily=Garamond;" parent="WIyWlLk6GJQsqaUBKTNV-1" edge="1">
          <mxGeometry width="100" relative="1" as="geometry">
            <mxPoint x="109" y="800" as="sourcePoint" />
            <mxPoint x="619" y="800" as="targetPoint" />
            <Array as="points">
              <mxPoint x="279" y="800" />
            </Array>
          </mxGeometry>
        </mxCell>
        <mxCell id="qcAdu_9-AjF_YOfYh3q7-54" value="" style="rounded=1;whiteSpace=wrap;html=1;fillColor=#e1d5e7;strokeColor=#9673a6;opacity=80;fontFamily=Garamond;strokeWidth=2;" parent="WIyWlLk6GJQsqaUBKTNV-1" vertex="1">
          <mxGeometry x="110" y="810" width="520" height="110" as="geometry" />
        </mxCell>
        <mxCell id="qcAdu_9-AjF_YOfYh3q7-55" value="&lt;font style=&quot;font-size: 17px&quot;&gt;Evaluation Part&lt;/font&gt;" style="text;html=1;strokeColor=none;fillColor=none;align=center;verticalAlign=middle;whiteSpace=wrap;rounded=0;fontFamily=Garamond;opacity=80;" parent="WIyWlLk6GJQsqaUBKTNV-1" vertex="1">
          <mxGeometry x="284" y="820" width="160" height="30" as="geometry" />
        </mxCell>
        <mxCell id="qcAdu_9-AjF_YOfYh3q7-56" value="compute_ess()" style="ellipse;whiteSpace=wrap;html=1;strokeWidth=1;opacity=90;fillColor=#dae8fc;strokeColor=#6c8ebf;fontFamily=Garamond;" parent="WIyWlLk6GJQsqaUBKTNV-1" vertex="1">
          <mxGeometry x="164" y="850" width="120" height="40" as="geometry" />
        </mxCell>
        <mxCell id="qcAdu_9-AjF_YOfYh3q7-57" value="compute_divergence()" style="ellipse;whiteSpace=wrap;html=1;strokeWidth=1;opacity=90;fillColor=#dae8fc;strokeColor=#6c8ebf;fontFamily=Garamond;" parent="WIyWlLk6GJQsqaUBKTNV-1" vertex="1">
          <mxGeometry x="398" y="850" width="174" height="40" as="geometry" />
        </mxCell>
        <mxCell id="qcAdu_9-AjF_YOfYh3q7-58" value="distance_hist()" style="ellipse;whiteSpace=wrap;html=1;strokeWidth=1;opacity=90;fillColor=#dae8fc;strokeColor=#6c8ebf;fontFamily=Garamond;" parent="WIyWlLk6GJQsqaUBKTNV-1" vertex="1">
          <mxGeometry x="84" y="350" width="120" height="40" as="geometry" />
        </mxCell>
        <mxCell id="qcAdu_9-AjF_YOfYh3q7-59" value="visualize_region()" style="ellipse;whiteSpace=wrap;html=1;strokeWidth=1;opacity=90;fillColor=#dae8fc;strokeColor=#6c8ebf;fontFamily=Garamond;" parent="WIyWlLk6GJQsqaUBKTNV-1" vertex="1">
          <mxGeometry x="94" y="510" width="120" height="40" as="geometry" />
        </mxCell>
        <mxCell id="qcAdu_9-AjF_YOfYh3q7-61" value="" style="endArrow=none;html=1;fontFamily=Garamond;exitX=1;exitY=0.5;exitDx=0;exitDy=0;" parent="WIyWlLk6GJQsqaUBKTNV-1" source="qcAdu_9-AjF_YOfYh3q7-59" edge="1">
          <mxGeometry width="50" height="50" relative="1" as="geometry">
            <mxPoint x="390" y="530" as="sourcePoint" />
            <mxPoint x="280" y="530" as="targetPoint" />
          </mxGeometry>
        </mxCell>
        <mxCell id="qcAdu_9-AjF_YOfYh3q7-64" value="" style="shape=link;html=1;fontFamily=Garamond;exitX=0.144;exitY=0.005;exitDx=0;exitDy=0;exitPerimeter=0;" parent="WIyWlLk6GJQsqaUBKTNV-1" source="qcAdu_9-AjF_YOfYh3q7-22" edge="1">
          <mxGeometry width="100" relative="1" as="geometry">
            <mxPoint x="220" y="390" as="sourcePoint" />
            <mxPoint x="440" y="390" as="targetPoint" />
            <Array as="points" />
          </mxGeometry>
        </mxCell>
        <mxCell id="lENhL_8H_t0cHYGKjKf6-0" value="_compute_eps()" style="ellipse;whiteSpace=wrap;html=1;strokeWidth=1;opacity=90;fillColor=#dae8fc;strokeColor=#6c8ebf;fontFamily=Garamond;" vertex="1" parent="WIyWlLk6GJQsqaUBKTNV-1">
          <mxGeometry x="84" y="390" width="120" height="40" as="geometry" />
        </mxCell>
      </root>
    </mxGraphModel>
  </diagram>
</mxfile>
